<svg width="24" height="24" viewBox="0 0 24 24" fill="none" xmlns="http://www.w3.org/2000/svg">
<rect width="24" height="24" fill="white" fill-opacity="0.01"/>
<path fill-rule="evenodd" clip-rule="evenodd" d="M8.29207 10.2929C8.10526 10.4818 8.00049 10.7368 8.00049 11.0024C8.00049 11.2681 8.10526 11.523 8.29207 11.7119L11.2311 14.6769C11.4491 14.8919 11.7311 14.9989 12.0101 14.9989C12.2891 14.9989 12.5661 14.8919 12.7791 14.6769L15.7091 11.7219C15.8956 11.5329 16.0002 11.278 16.0002 11.0124C16.0002 10.7469 15.8956 10.492 15.7091 10.3029C15.6172 10.2098 15.5078 10.1358 15.3871 10.0853C15.2664 10.0347 15.1369 10.0087 15.0061 10.0087C14.8752 10.0087 14.7457 10.0347 14.625 10.0853C14.5043 10.1358 14.3949 10.2098 14.3031 10.3029L12.0051 12.6199L9.69807 10.2929C9.60603 10.2001 9.49652 10.1264 9.37586 10.0762C9.25521 10.0259 9.12578 10 8.99507 10C8.86435 10 8.73493 10.0259 8.61427 10.0762C8.49361 10.1264 8.38411 10.2001 8.29207 10.2929Z" fill="#666666"/>
</svg>
