<svg width="16" height="16" fill="none" xmlns="http://www.w3.org/2000/svg"><path fill-rule="evenodd" clip-rule="evenodd" d="M11.136 6.195c.26.26.26.683 0 .943l-3.334 3.333a.667.667 0 0 1-.943 0l-2-2a.667.667 0 0 1 .943-.942l1.529 1.528 2.862-2.862c.26-.26.682-.26.943 0Z" fill="#00B512"/><path fill-rule="evenodd" clip-rule="evenodd" d="M7.999 2.667a5.333 5.333 0 1 0 0 10.667 5.333 5.333 0 0 0 0-10.667Zm-2.552-.826A6.667 6.667 0 1 1 10.55 14.16 6.667 6.667 0 0 1 5.447 1.84Z" fill="#00B512"/></svg>