<svg width="17" height="20" viewBox="0 0 17 20" fill="none" xmlns="http://www.w3.org/2000/svg">
<path d="M15.1786 0H1.82143C0.85 0 0 0.875 0 1.875V18.125C0 19.125 0.85 20 1.82143 20H15.1786C16.15 20 17 19.125 17 18.125V1.875C17 0.875 16.15 0 15.1786 0ZM15.1786 18.125H1.82143V8.125H15.1786V18.125ZM15.1786 6.25H1.82143V1.875H15.1786V6.25ZM4.12857 12.5H5.58571C5.82857 12.5 6.07143 12.25 6.07143 12V10.5C6.07143 10.25 5.82857 10 5.58571 10H4.12857C3.88571 10 3.64286 10.25 3.64286 10.5V12C3.64286 12.25 3.88571 12.5 4.12857 12.5ZM11.4143 16.25H12.8714C13.1143 16.25 13.3571 16 13.3571 15.75V10.5C13.3571 10.25 13.1143 10 12.8714 10H11.4143C11.1714 10 10.9286 10.25 10.9286 10.5V15.75C10.9286 16 11.1714 16.25 11.4143 16.25ZM4.12857 16.25H5.58571C5.82857 16.25 6.07143 16 6.07143 15.75V14.25C6.07143 14 5.82857 13.75 5.58571 13.75H4.12857C3.88571 13.75 3.64286 14 3.64286 14.25V15.75C3.64286 16 3.88571 16.25 4.12857 16.25ZM7.77143 12.5H9.22857C9.47143 12.5 9.71429 12.25 9.71429 12V10.5C9.71429 10.25 9.47143 10 9.22857 10H7.77143C7.52857 10 7.28571 10.25 7.28571 10.5V12C7.28571 12.25 7.52857 12.5 7.77143 12.5ZM7.77143 16.25H9.22857C9.47143 16.25 9.71429 16 9.71429 15.75V14.25C9.71429 14 9.47143 13.75 9.22857 13.75H7.77143C7.52857 13.75 7.28571 14 7.28571 14.25V15.75C7.28571 16 7.52857 16.25 7.77143 16.25Z" fill="white"/>
</svg>
