<svg width="22" height="22" viewBox="0 0 22 22" fill="none" xmlns="http://www.w3.org/2000/svg">
<path d="M21.8047 5.03425C21.7406 4.77688 21.6093 4.54115 21.4242 4.3512C21.2391 4.16124 21.0068 4.02387 20.7512 3.95314C20.4956 3.88242 20.2258 3.88087 19.9693 3.94867C19.7129 4.01647 19.4791 4.15117 19.2919 4.339L16.7713 6.85831L15.3774 6.62627L15.1462 5.23363L17.6676 2.71389C17.8552 2.52579 17.9895 2.29123 18.0566 2.03421C18.1238 1.77718 18.1214 1.50693 18.0498 1.25112C17.9782 0.995299 17.8399 0.763101 17.6491 0.578288C17.4583 0.393475 17.2218 0.262686 16.9638 0.199305C15.8528 -0.0816976 14.6878 -0.0682306 13.5836 0.238378C12.4794 0.544986 11.4742 1.13414 10.6672 1.94774C9.05027 3.56426 8.40703 5.87388 8.9175 8.104L1.03016 15.9864C0.53798 16.4793 0.202944 17.107 0.0673772 17.7903C-0.0681894 18.4735 0.0017973 19.1816 0.268495 19.8251C0.535192 20.4686 0.986633 21.0186 1.56578 21.4056C2.14492 21.7926 2.82579 21.9993 3.52234 21.9995C3.98527 22.0008 4.44386 21.9103 4.87162 21.7332C5.29937 21.5562 5.68782 21.2962 6.01453 20.9683L13.892 13.0932C16.1173 13.6033 18.4325 12.9583 20.0576 11.3345C20.8646 10.5223 21.4492 9.5162 21.7552 8.41288C22.0611 7.30955 22.0782 6.14607 21.8047 5.03425ZM18.5988 9.8765C17.3755 11.0994 15.5824 11.5136 13.9152 10.9598L13.311 10.7582L4.55574 19.5099C4.00359 20.0616 3.03937 20.0603 2.49023 19.5099C2.21667 19.2358 2.0631 18.8644 2.06326 18.4771C2.06343 18.0899 2.21731 17.7186 2.49109 17.4447L11.249 8.68796L11.05 8.08638C10.4996 6.41486 10.9117 4.62217 12.1243 3.40699C12.5465 2.98194 13.0486 2.64453 13.6016 2.41416C14.1547 2.18379 14.7478 2.065 15.3469 2.06462H15.395L12.9321 4.52678L13.5822 8.4194L17.4773 9.06566L19.9416 6.60393C19.9484 7.21142 19.833 7.81408 19.6023 8.37611C19.3717 8.93815 19.0304 9.44809 18.5988 9.87564V9.8765Z" fill="white"/>
</svg>
