<svg width="17" height="19" viewBox="0 0 17 19" fill="none" xmlns="http://www.w3.org/2000/svg">
<path d="M4.85714 5.49219V4.00782C4.85714 3.88971 4.90512 3.77645 4.99051 3.69293C5.07591 3.60942 5.19173 3.56251 5.3125 3.56251H6.83036C6.95113 3.56251 7.06695 3.60942 7.15234 3.69293C7.23774 3.77645 7.28571 3.88971 7.28571 4.00782V5.49219C7.28571 5.6103 7.23774 5.72357 7.15234 5.80708C7.06695 5.89059 6.95113 5.93751 6.83036 5.93751H5.3125C5.19173 5.93751 5.07591 5.89059 4.99051 5.80708C4.90512 5.72357 4.85714 5.6103 4.85714 5.49219ZM10.1696 5.93751H11.6875C11.8083 5.93751 11.9241 5.89059 12.0095 5.80708C12.0949 5.72357 12.1429 5.6103 12.1429 5.49219V4.00782C12.1429 3.88971 12.0949 3.77645 12.0095 3.69293C11.9241 3.60942 11.8083 3.56251 11.6875 3.56251H10.1696C10.0489 3.56251 9.93305 3.60942 9.84766 3.69293C9.76226 3.77645 9.71429 3.88971 9.71429 4.00782V5.49219C9.71429 5.6103 9.76226 5.72357 9.84766 5.80708C9.93305 5.89059 10.0489 5.93751 10.1696 5.93751ZM5.3125 9.50001H6.83036C6.95113 9.50001 7.06695 9.45309 7.15234 9.36958C7.23774 9.28607 7.28571 9.1728 7.28571 9.0547V7.57032C7.28571 7.45222 7.23774 7.33895 7.15234 7.25544C7.06695 7.17193 6.95113 7.12501 6.83036 7.12501H5.3125C5.19173 7.12501 5.07591 7.17193 4.99051 7.25544C4.90512 7.33895 4.85714 7.45222 4.85714 7.57032V9.0547C4.85714 9.1728 4.90512 9.28607 4.99051 9.36958C5.07591 9.45309 5.19173 9.50001 5.3125 9.50001ZM10.1696 9.50001H11.6875C11.8083 9.50001 11.9241 9.45309 12.0095 9.36958C12.0949 9.28607 12.1429 9.1728 12.1429 9.0547V7.57032C12.1429 7.45222 12.0949 7.33895 12.0095 7.25544C11.9241 7.17193 11.8083 7.12501 11.6875 7.12501H10.1696C10.0489 7.12501 9.93305 7.17193 9.84766 7.25544C9.76226 7.33895 9.71429 7.45222 9.71429 7.57032V9.0547C9.71429 9.1728 9.76226 9.28607 9.84766 9.36958C9.93305 9.45309 10.0489 9.50001 10.1696 9.50001ZM7.28571 12.6172V11.1328C7.28571 11.0147 7.23774 10.9015 7.15234 10.8179C7.06695 10.7344 6.95113 10.6875 6.83036 10.6875H5.3125C5.19173 10.6875 5.07591 10.7344 4.99051 10.8179C4.90512 10.9015 4.85714 11.0147 4.85714 11.1328V12.6172C4.85714 12.7353 4.90512 12.8486 4.99051 12.9321C5.07591 13.0156 5.19173 13.0625 5.3125 13.0625H6.83036C6.95113 13.0625 7.06695 13.0156 7.15234 12.9321C7.23774 12.8486 7.28571 12.7353 7.28571 12.6172ZM10.1696 13.0625H11.6875C11.8083 13.0625 11.9241 13.0156 12.0095 12.9321C12.0949 12.8486 12.1429 12.7353 12.1429 12.6172V11.1328C12.1429 11.0147 12.0949 10.9015 12.0095 10.8179C11.9241 10.7344 11.8083 10.6875 11.6875 10.6875H10.1696C10.0489 10.6875 9.93305 10.7344 9.84766 10.8179C9.76226 10.9015 9.71429 11.0147 9.71429 11.1328V12.6172C9.71429 12.7353 9.76226 12.8486 9.84766 12.9321C9.93305 13.0156 10.0489 13.0625 10.1696 13.0625ZM17 17.6641V19H0V17.6641C0 17.546 0.047975 17.4327 0.133371 17.3492C0.218767 17.2657 0.334589 17.2188 0.455357 17.2188H1.19531V0.890629C1.19501 0.773588 1.21836 0.657642 1.26402 0.549454C1.30969 0.441265 1.37676 0.342967 1.46138 0.260206C1.54601 0.177445 1.64653 0.111854 1.75716 0.0671994C1.86778 0.0225453 1.98635 -0.000290908 2.10603 2.79745e-06H14.894C15.0137 -0.000290908 15.1322 0.0225453 15.2428 0.0671994C15.3535 0.111854 15.454 0.177445 15.5386 0.260206C15.6232 0.342967 15.6903 0.441265 15.736 0.549454C15.7816 0.657642 15.805 0.773588 15.8047 0.890629V17.2188H16.5446C16.6654 17.2188 16.7812 17.2657 16.8666 17.3492C16.952 17.4327 17 17.546 17 17.6641ZM3.01674 17.1817H7.28571V14.6953C7.28571 14.5772 7.33369 14.464 7.41909 14.3804C7.50448 14.2969 7.6203 14.25 7.74107 14.25H9.25893C9.3797 14.25 9.49552 14.2969 9.58091 14.3804C9.66631 14.464 9.71429 14.5772 9.71429 14.6953V17.1817H13.9833V1.81836L3.03571 1.78125L3.01674 17.1817Z" fill="white"/>
</svg>
