<svg width="24" height="24" viewBox="0 0 24 24" fill="none" xmlns="http://www.w3.org/2000/svg">
<rect width="24" height="24" fill="white" fill-opacity="0.01"/>
<path d="M10.0001 18.9999V14.4999C10.0001 13.9695 10.2108 13.4608 10.5858 13.0857C10.9609 12.7106 11.4696 12.4999 12.0001 12.4999C12.5305 12.4999 13.0392 12.7106 13.4143 13.0857C13.7893 13.4608 14.0001 13.9695 14.0001 14.4999V18.9999H18.0001C18.2653 18.9999 18.5196 18.8946 18.7072 18.707C18.8947 18.5195 19.0001 18.2651 19.0001 17.9999V10.1689L12.7071 3.87293C12.5195 3.68545 12.2652 3.58014 12.0001 3.58014C11.7349 3.58014 11.4806 3.68545 11.2931 3.87293L5.00006 10.1689V17.9999C5.00006 18.2651 5.10542 18.5195 5.29295 18.707C5.48049 18.8946 5.73484 18.9999 6.00006 18.9999H10.0001ZM21.0001 12.1699V17.9999C21.0001 18.7956 20.684 19.5586 20.1214 20.1212C19.5588 20.6839 18.7957 20.9999 18.0001 20.9999H6.00006C5.20441 20.9999 4.44135 20.6839 3.87874 20.1212C3.31613 19.5586 3.00006 18.7956 3.00006 17.9999V12.1699L2.96006 12.2099C2.57006 12.5999 1.93006 12.5999 1.54006 12.2099C1.15006 11.8199 1.15006 11.1799 1.54006 10.7899L9.87906 2.45893C10.4416 1.89651 11.2046 1.58057 12.0001 1.58057C12.7956 1.58057 13.5585 1.89651 14.1211 2.45893L22.4601 10.7899C22.8501 11.1799 22.8501 11.8199 22.4601 12.2099C22.0701 12.5999 21.4301 12.5999 21.0401 12.2099L21.0001 12.1699Z" fill="white"/>
</svg>
