<svg width="24" height="24" viewBox="0 0 24 24" fill="none" xmlns="http://www.w3.org/2000/svg">
<path d="M10.5282 2.74437C5.22471 3.05102 1 7.47288 1 12.864C1 18.4522 5.55327 23 11.1497 23C12.861 23 14.5311 22.5729 16.0151 21.7597L14.3669 19.1285C13.3784 19.635 12.2805 19.9006 11.1579 19.9006C7.26451 19.9006 4.09393 16.741 4.09392 12.8612C4.09392 10.9775 4.81949 9.2115 6.13646 7.88357C7.31927 6.69255 8.86076 5.98067 10.5227 5.84377V2.74437H10.5282Z" fill="white"/>
<path d="M12.5789 1V6.01399C13.1983 6.06655 13.8016 6.21738 14.3798 6.4642C15.0814 6.76586 15.7144 7.19321 16.2606 7.7394C16.8068 8.2856 17.2341 8.91634 17.5358 9.62022C17.7826 10.1984 17.9334 10.8017 17.986 11.4211H23C22.7486 5.78546 18.2123 1.2491 12.5789 1Z" fill="white"/>
<path d="M18.425 13.3894H22.3053C22.1519 16.4082 20.6137 19.1551 18.1043 20.8926L17.9695 20.6737L16.0526 17.6203C17.4258 16.6018 18.2832 15.0739 18.425 13.3894Z" fill="white"/>
</svg>
