<svg width="16" height="15" viewBox="0 0 16 15" fill="none" xmlns="http://www.w3.org/2000/svg">
<path d="M11.1833 2.30833L13.6889 4.81389C13.7944 4.91944 13.7944 5.09167 13.6889 5.19722L7.62222 11.2639L5.04444 11.55C4.7 11.5889 4.40833 11.2972 4.44722 10.9528L4.73333 8.375L10.8 2.30833C10.9056 2.20278 11.0778 2.20278 11.1833 2.30833ZM15.6833 1.67222L14.3278 0.316667C13.9056 -0.105556 13.2194 -0.105556 12.7944 0.316667L11.8111 1.3C11.7056 1.40556 11.7056 1.57778 11.8111 1.68333L14.3167 4.18889C14.4222 4.29444 14.5944 4.29444 14.7 4.18889L15.6833 3.20556C16.1056 2.78056 16.1056 2.09444 15.6833 1.67222ZM10.6667 9.61389V12.4417H1.77778V3.55278H8.16111C8.25 3.55278 8.33333 3.51667 8.39722 3.45556L9.50833 2.34444C9.71944 2.13333 9.56944 1.775 9.27222 1.775H1.33333C0.597222 1.775 0 2.37222 0 3.10833V12.8861C0 13.6222 0.597222 14.2194 1.33333 14.2194H11.1111C11.8472 14.2194 12.4444 13.6222 12.4444 12.8861V8.50278C12.4444 8.20556 12.0861 8.05833 11.875 8.26667L10.7639 9.37778C10.7028 9.44167 10.6667 9.525 10.6667 9.61389Z" fill="#656565"/>
</svg>
