<svg width="18" height="20" viewBox="0 0 18 20" fill="none" xmlns="http://www.w3.org/2000/svg">
<path d="M12.4258 14.6367L11.7617 15.3008C11.5781 15.4844 11.2812 15.4844 11.0977 15.3008L9 13.1992L6.90234 15.2969C6.71875 15.4805 6.42188 15.4805 6.23828 15.2969L5.57422 14.6328C5.39062 14.4492 5.39062 14.1523 5.57422 13.9688L7.67188 11.8711L5.57422 9.77344C5.39062 9.58984 5.39062 9.29297 5.57422 9.10938L6.23828 8.44531C6.42188 8.26172 6.71875 8.26172 6.90234 8.44531L9 10.543L11.0977 8.44531C11.2812 8.26172 11.5781 8.26172 11.7617 8.44531L12.4258 9.10938C12.6094 9.29297 12.6094 9.58984 12.4258 9.77344L10.3242 11.875L12.4219 13.9727C12.6094 14.1562 12.6094 14.4531 12.4258 14.6367ZM17.75 4.375V18.125C17.75 19.1602 16.9102 20 15.875 20H2.125C1.08984 20 0.25 19.1602 0.25 18.125V4.375C0.25 3.33984 1.08984 2.5 2.125 2.5H4V0.46875C4 0.210938 4.21094 0 4.46875 0H6.03125C6.28906 0 6.5 0.210938 6.5 0.46875V2.5H11.5V0.46875C11.5 0.210938 11.7109 0 11.9688 0H13.5312C13.7891 0 14 0.210938 14 0.46875V2.5H15.875C16.9102 2.5 17.75 3.33984 17.75 4.375ZM15.875 17.8906V6.25H2.125V17.8906C2.125 18.0195 2.23047 18.125 2.35938 18.125H15.6406C15.7695 18.125 15.875 18.0195 15.875 17.8906Z" fill="#656565"/>
</svg>
