<svg width="14" height="16" viewBox="0 0 14 16" fill="none" xmlns="http://www.w3.org/2000/svg">
<path d="M1.375 14.0938C1.375 14.4667 1.52316 14.8244 1.78688 15.0881C2.0506 15.3518 2.40829 15.5 2.78125 15.5H11.2187C11.5917 15.5 11.9494 15.3518 12.2131 15.0881C12.4768 14.8244 12.625 14.4667 12.625 14.0938V4.25H1.375V14.0938ZM9.34375 6.59375C9.34375 6.46943 9.39313 6.3502 9.48104 6.2623C9.56895 6.17439 9.68818 6.125 9.8125 6.125C9.93682 6.125 10.056 6.17439 10.144 6.2623C10.2319 6.3502 10.2812 6.46943 10.2812 6.59375V13.1563C10.2812 13.2806 10.2319 13.3998 10.144 13.4877C10.056 13.5756 9.93682 13.625 9.8125 13.625C9.68818 13.625 9.56895 13.5756 9.48104 13.4877C9.39313 13.3998 9.34375 13.2806 9.34375 13.1563V6.59375ZM6.53125 6.59375C6.53125 6.46943 6.58063 6.3502 6.66854 6.2623C6.75645 6.17439 6.87568 6.125 7 6.125C7.12432 6.125 7.24355 6.17439 7.33145 6.2623C7.41936 6.3502 7.46875 6.46943 7.46875 6.59375V13.1563C7.46875 13.2806 7.41936 13.3998 7.33145 13.4877C7.24355 13.5756 7.12432 13.625 7 13.625C6.87568 13.625 6.75645 13.5756 6.66854 13.4877C6.58063 13.3998 6.53125 13.2806 6.53125 13.1563V6.59375ZM3.71875 6.59375C3.71875 6.46943 3.76814 6.3502 3.85604 6.2623C3.94395 6.17439 4.06318 6.125 4.1875 6.125C4.31182 6.125 4.43105 6.17439 4.51895 6.2623C4.60686 6.3502 4.65625 6.46943 4.65625 6.59375V13.1563C4.65625 13.2806 4.60686 13.3998 4.51895 13.4877C4.43105 13.5756 4.31182 13.625 4.1875 13.625C4.06318 13.625 3.94395 13.5756 3.85604 13.4877C3.76814 13.3998 3.71875 13.2806 3.71875 13.1563V6.59375ZM13.0937 1.4375H9.57812L9.30273 0.889653C9.2444 0.772529 9.15453 0.674006 9.04325 0.605169C8.93198 0.536332 8.8037 0.499911 8.67285 0.500005H5.32422C5.19366 0.499503 5.06561 0.535788 4.95473 0.604701C4.84384 0.673615 4.75461 0.772371 4.69726 0.889653L4.42187 1.4375H0.90625C0.78193 1.4375 0.662701 1.48689 0.574794 1.5748C0.486886 1.66271 0.4375 1.78193 0.4375 1.90625L0.4375 2.84375C0.4375 2.96807 0.486886 3.0873 0.574794 3.17521C0.662701 3.26312 0.78193 3.3125 0.90625 3.3125H13.0937C13.2181 3.3125 13.3373 3.26312 13.4252 3.17521C13.5131 3.0873 13.5625 2.96807 13.5625 2.84375V1.90625C13.5625 1.78193 13.5131 1.66271 13.4252 1.5748C13.3373 1.48689 13.2181 1.4375 13.0937 1.4375Z" fill="#656565"/>
</svg>
