<svg width="135" height="36" viewBox="0 0 135 36" fill="none" xmlns="http://www.w3.org/2000/svg">
<g clip-path="url(#clip0_238_1828)">
<path fill-rule="evenodd" clip-rule="evenodd" d="M65.6363 5.9502C72.6199 5.9502 78.2384 11.3502 78.2384 17.9502C78.2384 24.6002 72.5674 29.9502 65.6363 29.9502C58.6526 29.9502 53.0342 24.5502 53.0342 17.9502C53.0342 11.3002 58.7051 5.9502 65.6363 5.9502ZM65.6363 10.0502C61.068 10.0502 57.3399 13.6002 57.3399 17.9502C57.3399 22.3002 61.068 25.8502 65.6363 25.8502C70.2045 25.8502 73.9327 22.3002 73.9327 17.9502C73.9327 13.6002 70.2571 10.0502 65.6363 10.0502Z" fill="white"/>
<path fill-rule="evenodd" clip-rule="evenodd" d="M55.1337 0.549846C55.9739 0.0998459 56.919 -0.100154 57.8117 -0.000154179C58.7043 0.0998458 59.597 0.449846 60.2796 1.04985C60.6996 0.949846 61.1722 0.849846 61.5923 0.749846C62.0649 0.649846 62.5375 0.599846 63.01 0.549846C64.2177 0.449846 65.3729 0.499846 66.5806 0.599846C67.7883 0.749846 68.9435 0.999846 70.0987 1.39985C70.2562 1.44985 70.3613 1.54985 70.4138 1.64985C70.4663 1.69985 70.4663 1.79985 70.4663 1.89985L70.4138 2.04985L69.9937 3.59985C69.9412 3.74985 69.8362 3.84985 69.7312 3.89985C69.6261 3.94985 69.4686 3.99985 69.3111 3.94985C68.3659 3.74985 67.4208 3.59985 66.4231 3.54985C65.4779 3.49985 64.4803 3.54985 63.5351 3.64985C62.59 3.79985 61.6448 3.99985 60.6996 4.29985C59.807 4.59985 58.9143 4.99985 58.0742 5.44985C57.2341 5.89985 56.4464 6.44985 55.7113 7.04985C54.9762 7.64985 54.2936 8.34985 53.716 9.04985C53.1384 9.79985 52.6133 10.5498 52.1407 11.3998C51.7207 12.2498 51.3531 13.0998 51.0905 13.9998C51.038 14.1498 50.933 14.2498 50.828 14.2998C50.723 14.3498 50.618 14.3498 50.5655 14.3498L50.4604 14.2998L48.8327 13.9998C48.6751 13.9498 48.5701 13.8498 48.5176 13.7498C48.4651 13.6498 48.4126 13.4998 48.4651 13.3498C48.7277 12.1998 49.0427 11.0998 49.5153 10.0498C49.9879 8.99985 50.5655 7.99985 51.2481 7.09985C51.5106 6.74985 51.8257 6.34985 52.1407 5.99985C52.4558 5.64985 52.7183 5.34985 53.0334 5.04985C52.8233 4.19985 52.9284 3.29985 53.2959 2.49985C53.6635 1.69985 54.2936 1.04985 55.1337 0.549846ZM82.9634 22.6499C82.7008 23.7999 82.3858 24.8999 81.9132 25.9499C81.4406 26.9999 80.863 27.9999 80.1804 28.8999C79.9178 29.2999 79.6028 29.6499 79.2877 29.9999C79.0252 30.3499 78.7101 30.6499 78.3951 30.9499C78.6051 31.7999 78.5001 32.6999 78.1326 33.4999C77.765 34.2999 77.1349 34.9999 76.2947 35.4499C75.4546 35.8999 74.5094 36.0999 73.6168 35.9999C72.7241 35.8999 71.8315 35.5499 71.1489 34.9499C70.7288 35.0499 70.2562 35.1499 69.8362 35.2499C69.3636 35.3499 68.891 35.3999 68.4184 35.4499C67.2107 35.5499 66.0555 35.4999 64.8478 35.3999C63.6401 35.2499 62.4849 34.9999 61.3298 34.5999C61.1722 34.5499 61.0672 34.4499 61.0147 34.3499C60.9622 34.2999 60.9622 34.1999 60.9622 34.0999L61.0147 33.9499L61.4348 32.3999C61.4873 32.2499 61.5923 32.1499 61.6973 32.0999C61.8023 32.0499 61.9599 31.9999 62.1174 32.0499C63.0625 32.2499 64.0077 32.3999 65.0054 32.4499C65.9505 32.4999 66.9482 32.4499 67.8933 32.3499C68.8385 32.1999 69.7837 31.9999 70.7288 31.6999C71.6215 31.3999 72.5141 30.9999 73.3543 30.5499C74.1944 30.0999 74.982 29.5499 75.7171 28.9499C76.4523 28.3499 77.1349 27.6499 77.7125 26.9499C78.2901 26.1999 78.8152 25.4499 79.2877 24.5999C79.7078 23.7499 80.0754 22.8999 80.3379 21.9999C80.3904 21.8499 80.4954 21.7499 80.6005 21.6999C80.7055 21.6499 80.8105 21.6499 80.863 21.6499L80.968 21.6999L82.5958 22.0999C82.7533 22.1499 82.8583 22.2499 82.9108 22.3499C82.9634 22.3999 83.0159 22.4999 82.9634 22.6499Z" fill="white"/>
<path d="M118.04 6.29981C118.25 6.34981 118.302 6.59981 118.25 6.74981L118.04 6.29981ZM31.9778 26.9498C31.9778 27.0998 31.8203 27.2498 31.6628 27.2498L31.9778 26.9498ZM0.262544 8.09981V8.04981V8.09981ZM134.055 25.8998C134.212 25.9998 134.265 26.2498 134.107 26.3998L134.055 25.8998ZM134.685 28.6998C134.58 28.8498 134.317 28.8998 134.16 28.7998L134.685 28.6998ZM119.982 22.3498L122.66 19.6998L129.854 28.3998C129.907 28.4498 129.959 28.5498 130.012 28.5998C130.064 28.6498 130.117 28.6998 130.169 28.7498C130.852 29.3998 131.639 29.7498 132.375 29.7998C132.847 29.8498 133.32 29.7498 133.687 29.5498C134.107 29.3498 134.422 29.0998 134.632 28.7498C134.895 28.2998 135 27.7498 134.842 27.1498V27.0998C134.737 26.6498 134.422 26.2498 134.002 25.9498H133.95C133.635 25.7498 133.215 25.5998 132.795 25.6498L125.653 16.7998L131.429 11.0498C131.482 10.9998 131.534 10.8998 131.639 10.8498C131.744 10.7498 131.849 10.5998 131.902 10.5498C132.217 10.0998 132.427 9.59981 132.532 9.09981C132.585 8.64981 132.532 8.14981 132.375 7.64981C132.322 7.54981 132.27 7.49981 132.27 7.39981C132.217 7.34981 132.165 7.24981 132.112 7.19981C132.06 7.0998 132.007 7.04981 131.954 6.99981C131.902 6.94981 131.849 6.89981 131.797 6.79981L131.744 6.74981C131.482 6.54981 131.167 6.39981 130.852 6.29981C130.537 6.24981 130.222 6.24981 129.854 6.29981H129.802C129.539 6.34981 129.329 6.4498 129.119 6.5998C128.909 6.74981 128.751 6.89981 128.594 7.09981L128.541 7.14981L128.489 7.19981C128.436 7.29981 128.384 7.39981 128.331 7.49981C128.331 7.54981 128.331 7.54981 128.279 7.59981C128.226 7.74981 128.174 7.94981 128.174 8.14981C128.174 8.24981 128.174 8.39981 128.226 8.49981L120.035 16.7998L120.088 9.39981V9.34981C120.088 9.24981 120.088 9.14981 120.088 8.99981C120.088 8.89981 120.035 8.74981 120.035 8.64981C119.983 8.39981 119.93 8.14981 119.825 7.94981C119.72 7.69981 119.615 7.49981 119.457 7.29981C119.3 7.09981 119.09 6.89981 118.88 6.6998C118.67 6.5498 118.407 6.3998 118.145 6.3498H118.092C117.672 6.1998 117.2 6.1498 116.779 6.2498C116.359 6.2998 115.992 6.49981 115.677 6.79981C115.624 6.84981 115.572 6.89981 115.519 6.99981C115.467 7.04981 115.414 7.0998 115.362 7.19981C115.152 7.54981 115.047 7.89981 115.047 8.29981C115.047 8.64981 115.152 8.99981 115.414 9.34981C115.519 9.49981 115.624 9.59981 115.729 9.69981C115.782 9.74981 115.834 9.79981 115.887 9.79981V26.2998C115.729 26.3998 115.624 26.4998 115.519 26.6498C115.362 26.8498 115.257 27.0498 115.152 27.2998C115.047 27.6498 115.047 28.0498 115.099 28.3998C115.204 28.7498 115.414 29.0998 115.677 29.3498C115.992 29.6498 116.359 29.7998 116.779 29.8498C117.2 29.8998 117.672 29.8498 118.04 29.7498C118.302 29.6498 118.565 29.5498 118.775 29.3498C118.985 29.1998 119.195 28.9998 119.405 28.7498C119.562 28.5498 119.667 28.3498 119.772 28.0998C119.877 27.8498 119.93 27.5998 119.982 27.3998C119.982 27.2998 120.035 27.1498 120.035 27.0498C120.035 26.8998 120.035 26.7998 120.035 26.6998V22.3498H119.982ZM27.7771 26.1498C27.7246 26.1998 27.6196 26.2498 27.5671 26.2998C27.4621 26.3998 27.3571 26.4998 27.252 26.6498C27.1995 26.7498 27.147 26.7998 27.0945 26.8998C27.042 26.9498 27.042 27.0498 26.9895 27.0998C26.9895 27.1498 26.9895 27.1498 26.9895 27.1998C26.9895 27.2998 26.937 27.3498 26.937 27.4498C26.937 27.5498 26.937 27.6498 26.937 27.7498V27.7998C26.937 28.1498 27.042 28.4998 27.252 28.7498C27.4621 29.0498 27.7246 29.2998 28.0922 29.4498C28.4072 29.5998 28.6698 29.6498 29.0373 29.6998C29.3524 29.6998 29.72 29.6498 30.035 29.5998C30.1925 29.5498 30.2976 29.4998 30.4026 29.4498C30.5076 29.3998 30.6126 29.2998 30.7701 29.2498H30.8226C30.9277 29.1998 31.0327 29.0998 31.1377 28.9998C31.2427 28.8998 31.2952 28.8498 31.4002 28.7498C31.5578 28.5498 31.6628 28.3498 31.7678 28.0998C31.8728 27.8498 31.9253 27.6498 31.9778 27.3998V27.3498C31.9778 27.2498 32.0303 27.0998 32.0303 26.9998C32.0303 26.8498 32.0303 26.7498 32.0303 26.6498V20.2998H36.7036L41.2719 27.9998C41.3244 28.0998 41.4294 28.1998 41.4819 28.3498C41.5344 28.4498 41.6394 28.5498 41.7445 28.6498C41.9545 28.8498 42.1645 29.0498 42.4271 29.1998C42.6371 29.3498 42.8997 29.4498 43.2147 29.5498C43.6348 29.6998 44.1074 29.7498 44.5799 29.6498C45 29.5998 45.4201 29.3998 45.7351 29.1498C46.1027 28.8498 46.3127 28.4498 46.4177 28.0498C46.5228 27.6498 46.5228 27.1998 46.3127 26.7998C46.1552 26.4498 45.8927 26.1498 45.5251 25.9498C45.2625 25.7998 44.9475 25.6498 44.6324 25.5998L41.0093 19.5998C41.0618 19.5498 41.1669 19.5498 41.2194 19.4998C41.692 19.2498 42.112 18.9998 42.5321 18.6498C42.9522 18.2998 43.3197 17.9498 43.6348 17.5498C43.7923 17.3498 43.9498 17.1498 44.0548 16.9498C44.2124 16.7498 44.3174 16.4998 44.4224 16.2998C44.5274 16.0498 44.6324 15.8498 44.7375 15.5998C44.8425 15.3498 44.895 15.0998 44.9475 14.8498C45.0525 14.3498 45.105 13.8498 45.105 13.3498C45.105 12.8498 45.0525 12.3498 44.9475 11.8498C44.8425 11.3998 44.685 10.9498 44.5274 10.5498C44.3174 10.0998 44.1074 9.69981 43.8448 9.29981C43.7398 9.09981 43.5823 8.94981 43.4247 8.74981C43.2672 8.59981 43.1097 8.39981 42.9522 8.24981C42.7946 8.09981 42.5846 7.94981 42.4271 7.79981C42.2695 7.64981 42.0595 7.49981 41.8495 7.39981C41.4294 7.14981 41.0093 6.89981 40.5368 6.74981C40.1167 6.54981 39.6441 6.4498 39.1715 6.3498C38.909 6.2998 38.6989 6.2498 38.4364 6.2498C38.2264 6.2498 37.9638 6.1998 37.7538 6.1998H37.7013H29.0898C28.9323 6.1998 28.7223 6.1998 28.5648 6.2498C28.4072 6.2998 28.1972 6.3498 28.0397 6.4498C27.8821 6.5498 27.7246 6.59981 27.6196 6.74981H27.5671C27.4621 6.84981 27.3046 6.99981 27.252 7.09981C27.042 7.39981 26.937 7.79981 26.937 8.14981C26.937 8.54981 27.042 8.89981 27.252 9.24981C27.3571 9.39981 27.4621 9.49981 27.5671 9.59981C27.6196 9.64981 27.6721 9.69981 27.7771 9.74981V26.1498ZM37.7538 10.1498C37.9638 10.1498 38.1739 10.1498 38.4364 10.1998C38.6464 10.2498 38.8565 10.2998 39.0665 10.3998C39.2766 10.4998 39.4341 10.5498 39.5916 10.6998C39.7491 10.7998 39.9067 10.9498 40.0642 11.0998H40.1167C40.2742 11.2498 40.3792 11.3998 40.4842 11.5498C40.5893 11.6998 40.6943 11.8998 40.7468 12.0498C40.9043 12.4498 41.0093 12.8498 41.0093 13.2498C41.0093 13.6498 40.9043 14.0498 40.7468 14.4498V14.4998C40.6418 14.7498 40.4842 14.9998 40.2742 15.1998C40.0642 15.4498 39.8541 15.6498 39.5916 15.7998C39.3291 15.9498 39.0665 16.0998 38.7515 16.1998H38.6989C38.3839 16.2998 38.1214 16.3498 37.8063 16.3498H37.7538H31.9778V10.1498H37.7538ZM1.10268 25.9498C0.997666 25.9998 0.945158 26.0498 0.84014 26.0998C0.682614 26.1998 0.577596 26.3498 0.42007 26.4498C0.262544 26.6498 0.157526 26.7998 0.105018 26.9998C0.0525088 27.1998 0 27.3998 0 27.5998V27.6498C0 27.8998 0.0525088 28.1498 0.157526 28.3998C0.262544 28.6498 0.42007 28.8498 0.630105 29.0498C0.735123 29.1998 0.892649 29.2998 1.05018 29.3998C1.2077 29.4998 1.36523 29.5498 1.52275 29.5998C1.62777 29.5998 1.68028 29.6498 1.7853 29.6498C1.83781 29.6498 1.94282 29.6498 1.99533 29.6498H2.04784H11.6569H11.7095C11.9195 29.6498 12.182 29.6498 12.3921 29.5998C12.6021 29.5998 12.8646 29.5498 13.0747 29.4998H13.1272C13.5998 29.3998 14.0198 29.2998 14.4924 29.0998C14.9125 28.9498 15.3326 28.6998 15.7526 28.4498C15.9627 28.3498 16.1202 28.1998 16.3302 28.0498C16.4877 27.8998 16.6978 27.7498 16.8553 27.5998C17.1704 27.2998 17.4854 26.9498 17.748 26.5998C18.0105 26.2498 18.2205 25.8498 18.4306 25.4498C18.6931 24.7998 18.9032 24.1498 18.9557 23.4498C19.0082 22.7498 19.0082 22.0998 18.8506 21.3998C18.7981 21.1998 18.7456 20.9998 18.6931 20.7998C18.6406 20.5998 18.5356 20.3998 18.4831 20.1998C18.3256 19.7998 18.1155 19.4498 17.853 19.0498C17.5904 18.6998 17.3279 18.3498 17.0128 18.0498C16.8028 17.8498 16.6453 17.6998 16.4352 17.5498C16.3302 17.4998 16.2777 17.3998 16.1727 17.3498C16.4352 17.0998 16.6453 16.7998 16.8028 16.5498C17.0653 16.1498 17.3279 15.6998 17.4854 15.2498C17.6954 14.6998 17.8005 14.0998 17.853 13.5498C17.9055 12.9498 17.853 12.3498 17.6954 11.7498C17.5904 11.2998 17.4329 10.8498 17.2754 10.4498C17.0653 9.99981 16.8553 9.59981 16.5928 9.24981C16.3302 8.89981 16.0152 8.54981 15.7001 8.19981C15.3851 7.89981 15.0175 7.59981 14.6499 7.34981C14.4924 7.24981 14.2824 7.09981 14.0723 6.99981C13.8623 6.89981 13.6523 6.7998 13.4422 6.6998C12.9697 6.4998 12.5496 6.39981 12.0245 6.29981C11.5519 6.19981 11.0793 6.1498 10.6068 6.1498H10.5543H2.4154C2.25788 6.1498 2.10035 6.1498 1.89032 6.1998C1.73279 6.2498 1.52275 6.2998 1.36523 6.39981C1.05017 6.54981 0.735123 6.7998 0.577596 7.09981V7.14981C0.367561 7.44981 0.262544 7.79981 0.262544 8.14981V8.19981C0.262544 8.39981 0.315053 8.54981 0.367561 8.74981C0.42007 8.89981 0.472579 9.09981 0.577596 9.24981V9.29981C0.682614 9.44981 0.787631 9.54981 0.892649 9.64981C0.945158 9.69981 0.997666 9.74981 1.10268 9.79981V25.9498ZM14.86 22.7998C14.86 23.1998 14.755 23.5998 14.5974 23.9498C14.4399 24.2998 14.2299 24.5998 13.9148 24.8998C13.8098 24.9998 13.7048 25.0498 13.5998 25.1498C13.4947 25.1998 13.3897 25.2998 13.2847 25.3498H13.2322C12.9697 25.4998 12.7596 25.5998 12.4971 25.6498C12.2345 25.6998 11.972 25.7498 11.7095 25.7498H11.6569H5.30338V19.7998H11.7095H11.762C12.0245 19.7998 12.287 19.8498 12.5496 19.8998C12.8121 19.9498 13.0222 20.0498 13.2847 20.1498H13.3372C13.4422 20.1998 13.5473 20.2998 13.6523 20.3498C13.7573 20.3998 13.8623 20.4998 13.9673 20.5998C14.1774 20.7998 14.3349 20.9998 14.4399 21.1998C14.5974 21.3998 14.6499 21.6498 14.755 21.8998C14.8075 22.0498 14.8075 22.1498 14.86 22.2998C14.86 22.4498 14.86 22.5998 14.86 22.7998ZM13.6523 12.5498C13.7573 12.9998 13.7573 13.5498 13.5998 14.0498C13.4947 14.4498 13.2847 14.8498 13.0222 15.1498C12.9697 15.1998 12.8646 15.2498 12.8121 15.3498C12.7596 15.3998 12.6546 15.4498 12.5496 15.4998C12.3396 15.5998 12.077 15.6998 11.867 15.7498C11.6044 15.7998 11.3419 15.7998 11.0793 15.7998H5.30338V10.1498H10.5543C10.7643 10.1498 10.9743 10.1498 11.1844 10.1998C11.3944 10.2498 11.6044 10.2998 11.8145 10.3498C11.9195 10.3998 11.972 10.3998 12.077 10.4498C12.182 10.4998 12.2345 10.5498 12.3396 10.5998C12.4971 10.6998 12.6546 10.8498 12.8121 10.9498C12.9697 11.0998 13.0747 11.2498 13.1797 11.3998C13.1797 11.3998 13.1797 11.4498 13.2322 11.4498C13.3372 11.5998 13.4422 11.7498 13.4948 11.9498C13.5998 12.1998 13.6523 12.3498 13.6523 12.5498ZM96.301 29.7498C95.9335 29.6998 95.6184 29.6498 95.3034 29.5498C94.9883 29.4498 94.6733 29.3998 94.3582 29.2498C94.0432 29.1498 93.7281 29.0498 93.4131 28.8998C93.098 28.7998 92.8355 28.6498 92.5204 28.4998C92.2054 28.3498 91.9428 28.1998 91.6803 28.0498C91.4177 27.8998 91.1552 27.6998 90.8927 27.5498C90.6301 27.3498 90.3676 27.1498 90.1575 26.9498C89.895 26.7498 89.6849 26.5498 89.4749 26.2998C88.7923 25.6498 88.2147 24.8998 87.6896 24.1498C87.1645 23.3498 86.797 22.5498 86.4819 21.6498C86.3769 21.3498 86.2719 21.0498 86.2194 20.7498C86.1669 20.4498 86.0619 20.1498 86.0093 19.8498C85.9043 19.1998 85.8518 18.5998 85.8518 17.9998C85.8518 17.3498 85.9043 16.7498 86.0093 16.0998C86.0619 15.7998 86.1144 15.4998 86.2194 15.1998C86.2719 14.8998 86.3769 14.5998 86.4819 14.2998C86.5869 13.9998 86.6919 13.6998 86.8495 13.4498C86.9545 13.1498 87.112 12.8998 87.2695 12.5998C87.4271 12.2998 87.5846 12.0498 87.7421 11.7998C87.8997 11.5498 88.1097 11.2998 88.2672 11.0498C88.4772 10.7998 88.6348 10.5498 88.8448 10.3498C89.0548 10.0998 89.2649 9.89981 89.4749 9.64981C89.6849 9.39981 89.9475 9.19981 90.1575 8.99981C90.4201 8.79981 90.6301 8.59981 90.8927 8.39981H90.9452C91.2077 8.19981 91.4702 8.04981 91.7328 7.89981C91.9953 7.74981 92.2579 7.59981 92.5729 7.44981C93.1505 7.14981 93.7806 6.89981 94.3582 6.6998C94.9883 6.4998 95.6184 6.3498 96.301 6.2498C97.1412 6.0998 97.9813 6.0498 98.874 6.0998C99.7666 6.1498 100.607 6.2498 101.447 6.4498C101.709 6.4998 101.972 6.59981 102.235 6.64981C102.497 6.69981 102.76 6.79981 102.97 6.89981L103.075 6.94981C103.6 7.14981 104.492 7.44981 104.965 7.89981C105.07 8.04981 105.175 8.14981 105.28 8.29981V8.34981C105.385 8.49981 105.438 8.64981 105.49 8.79981C105.49 8.89981 105.543 8.94981 105.543 9.04981C105.543 9.14981 105.543 9.24981 105.543 9.29981C105.543 9.64981 105.438 9.99981 105.28 10.2998C105.123 10.5998 104.86 10.8498 104.597 10.9998C104.282 11.1998 103.915 11.2998 103.547 11.2998C103.232 11.2998 102.865 11.2498 102.55 11.0998H102.497H102.445H102.392C102.235 11.0498 102.077 10.9498 101.972 10.8998C101.814 10.8498 101.657 10.7498 101.499 10.6998C100.712 10.3998 99.9242 10.1998 99.1365 10.1498C98.3489 10.0998 97.5613 10.0998 96.7211 10.2998C96.196 10.3998 95.671 10.5498 95.1984 10.7498C94.6733 10.9498 94.2007 11.1998 93.7806 11.4998C93.3606 11.7998 92.9405 12.0998 92.5204 12.4998C92.1529 12.8498 91.7853 13.2498 91.4702 13.6998C91.3127 13.8998 91.2077 14.1498 91.0502 14.3498C90.9452 14.5998 90.7876 14.7998 90.6826 15.0498C90.5776 15.2998 90.4726 15.5498 90.4201 15.7998C90.3151 16.0498 90.2626 16.2998 90.21 16.5498V16.5998C90.1575 16.8498 90.105 17.0998 90.105 17.3498C90.0525 17.5998 90.0525 17.8998 90.0525 18.1498C90.0525 18.3498 90.0525 18.5498 90.105 18.7998C90.105 18.9998 90.1575 19.2498 90.21 19.4498C90.3151 20.0498 90.5251 20.6498 90.7351 21.1998C90.9977 21.7498 91.3127 22.2998 91.7328 22.7998C91.8903 22.9498 91.9953 23.1498 92.1529 23.2998C92.3104 23.4498 92.4154 23.5998 92.5729 23.7498C92.888 24.0498 93.203 24.2998 93.5706 24.5498C93.9382 24.7998 94.3057 24.9998 94.6733 25.1998C94.8833 25.2998 95.0933 25.3998 95.2509 25.4498C95.4609 25.5498 95.671 25.5998 95.881 25.6498C96.091 25.6998 96.3011 25.7998 96.5111 25.8498C96.7211 25.8998 96.9312 25.9498 97.1412 25.9998C97.5613 26.0498 97.9813 26.0998 98.4014 26.0998C98.8215 26.0998 99.2415 26.0998 99.6616 25.9998C100.029 25.9498 100.449 25.8498 100.817 25.7498C101.184 25.6498 101.552 25.4998 101.919 25.3498C102.077 25.2498 102.287 25.1998 102.445 25.0998C102.602 24.9998 102.76 24.8998 102.97 24.7998H103.022C103.442 24.5498 103.862 24.4498 104.335 24.4998C104.807 24.5498 105.28 24.7498 105.595 25.0498C105.7 25.1498 105.805 25.2498 105.858 25.3498C105.963 25.4498 106.015 25.5998 106.068 25.6998C106.173 25.9998 106.225 26.2998 106.225 26.5498C106.225 26.8498 106.12 27.1498 106.015 27.3998C105.91 27.5498 105.805 27.6998 105.7 27.8498C105.595 27.9998 105.438 28.0998 105.28 28.1998H105.228C103.915 28.9498 102.497 29.4998 100.974 29.7998C99.3466 29.9998 97.8238 29.9998 96.301 29.7498Z" fill="white"/>
</g>
<defs>
<clipPath id="clip0_238_1828">
<rect width="135" height="36" fill="white"/>
</clipPath>
</defs>
</svg>
