<svg width="20" height="18" viewBox="0 0 20 18" fill="none" xmlns="http://www.w3.org/2000/svg">
<path d="M18.125 0.25H1.875C0.839844 0.25 0 1.08984 0 2.125V15.875C0 16.9102 0.839844 17.75 1.875 17.75H18.125C19.1602 17.75 20 16.9102 20 15.875V2.125C20 1.08984 19.1602 0.25 18.125 0.25ZM18.125 15.6406C18.125 15.7695 18.0195 15.875 17.8906 15.875H2.10938C1.98047 15.875 1.875 15.7695 1.875 15.6406V2.35938C1.875 2.23047 1.98047 2.125 2.10938 2.125H17.8906C18.0195 2.125 18.125 2.23047 18.125 2.35938V15.6406ZM13.9258 6.60156L11.5273 9L13.9258 11.3984C14.1055 11.5781 14.1055 11.8711 13.9258 12.0547L13.0547 12.9258C12.875 13.1055 12.582 13.1055 12.3984 12.9258L10 10.5273L7.60156 12.9258C7.42188 13.1055 7.12891 13.1055 6.94531 12.9258L6.07422 12.0547C5.89453 11.875 5.89453 11.582 6.07422 11.3984L8.47266 9L6.07422 6.60156C5.89453 6.42188 5.89453 6.12891 6.07422 5.94531L6.94531 5.07422C7.125 4.89453 7.41797 4.89453 7.60156 5.07422L10 7.47266L12.3984 5.07422C12.5781 4.89453 12.8711 4.89453 13.0547 5.07422L13.9258 5.94531C14.1094 6.125 14.1094 6.41797 13.9258 6.60156Z" fill="#656565"/>
</svg>
