<svg width="21" height="21" viewBox="0 0 21 21" fill="none" xmlns="http://www.w3.org/2000/svg">
<path d="M20.0294 18.1317H19.6933V15.8084C19.6933 15.5443 19.5871 15.2911 19.398 15.1043C19.2089 14.9176 18.9524 14.8127 18.685 14.8127H18.0128V8.50666H15.9961V14.8127H13.9794V8.50666H11.9628V14.8127H9.94609V8.50666H7.92943V14.8127H5.91276V8.50666H3.89609V14.8127H3.22387C2.95644 14.8127 2.69997 14.9176 2.51087 15.1043C2.32177 15.2911 2.21554 15.5443 2.21554 15.8084V18.1317H1.87943C1.612 18.1317 1.35553 18.2366 1.16643 18.4233C0.977329 18.61 0.871094 18.8633 0.871094 19.1274V19.7911C0.871094 19.8792 0.906505 19.9636 0.969538 20.0258C1.03257 20.0881 1.11806 20.123 1.2072 20.123H20.7016C20.7908 20.123 20.8763 20.0881 20.9393 20.0258C21.0023 19.9636 21.0378 19.8792 21.0378 19.7911V19.1274C21.0378 18.8633 20.9315 18.61 20.7424 18.4233C20.5533 18.2366 20.2969 18.1317 20.0294 18.1317ZM17.6766 18.1317H4.2322V16.8041H17.6766V18.1317ZM20.713 4.73383L11.5922 0.975096C11.1782 0.839031 10.7307 0.839031 10.3167 0.975096L1.19586 4.73383C1.10038 4.76972 1.0182 4.83342 0.960206 4.91647C0.902209 4.99952 0.871133 5.09801 0.871094 5.1989V6.34933C0.871094 6.48137 0.924211 6.608 1.01876 6.70136C1.11331 6.79473 1.24155 6.84718 1.37526 6.84718H2.21554V7.34502C2.21554 7.47706 2.26866 7.60369 2.36321 7.69705C2.45775 7.79042 2.58599 7.84287 2.7197 7.84287H19.1891C19.3229 7.84287 19.4511 7.79042 19.5456 7.69705C19.6402 7.60369 19.6933 7.47706 19.6933 7.34502V6.84718H20.5336C20.6673 6.84718 20.7955 6.79473 20.8901 6.70136C20.9846 6.608 21.0378 6.48137 21.0378 6.34933V5.1989C21.0377 5.09801 21.0066 4.99952 20.9486 4.91647C20.8906 4.83342 20.8085 4.76972 20.713 4.73383ZM2.88776 5.85149L10.9544 2.86442L19.0211 5.85149H2.88776Z" fill="white"/>
</svg>
