<svg width="20" height="20" viewBox="0 0 20 20" fill="none" xmlns="http://www.w3.org/2000/svg">
<rect width="20" height="20" rx="3" fill="#B01D22"/>
<path d="M4 10C4 10.5103 4.41337 10.9234 4.92308 10.9234H9.07692V15.0772C9.07692 15.5875 9.49029 16 10 16C10.5097 16 10.9231 15.5875 10.9231 15.0772V10.9234H15.0769C15.5866 10.9234 16 10.5103 16 10C16 9.48971 15.5866 9.07721 15.0769 9.07721H10.9231V4.92337C10.9231 4.41308 10.5097 4 10 4C9.49029 4 9.07692 4.41308 9.07692 4.92337V9.07721H4.92308C4.4125 9.07721 4 9.48942 4 10Z" fill="white"/>
</svg>
