<svg width="24" height="24" viewBox="0 0 24 24" fill="none" xmlns="http://www.w3.org/2000/svg">
<path d="M21.375 17H4.5V5.125C4.5 4.77969 4.22031 4.5 3.875 4.5H2.625C2.27969 4.5 2 4.77969 2 5.125V18.25C2 18.9402 2.55977 19.5 3.25 19.5H21.375C21.7203 19.5 22 19.2203 22 18.875V17.625C22 17.2797 21.7203 17 21.375 17ZM20.125 5.75H15.5133C14.6781 5.75 14.2598 6.75977 14.8504 7.35039L16.116 8.61602L13.25 11.4824L10.384 8.61641C9.8957 8.12813 9.1043 8.12813 8.61641 8.61641L5.9332 11.2996C5.68906 11.5438 5.68906 11.9395 5.9332 12.1836L6.8168 13.0672C7.06094 13.3113 7.45664 13.3113 7.70078 13.0672L9.5 11.2676L12.366 14.1336C12.8543 14.6219 13.6457 14.6219 14.1336 14.1336L17.8836 10.3836L19.1492 11.6492C19.7398 12.2398 20.7496 11.8215 20.7496 10.9863V6.375C20.75 6.02969 20.4703 5.75 20.125 5.75Z" fill="#656565"/>
</svg>
