<svg width="24" height="24" viewBox="0 0 24 24" fill="none" xmlns="http://www.w3.org/2000/svg">
<path d="M11.3417 2.29031L3.21508 5.33778C2.48447 5.61127 2 6.31453 2 7.09594V15.8906C2 16.6017 2.40242 17.2503 3.03536 17.5667L11.1619 21.63C11.6894 21.8957 12.3106 21.8957 12.8381 21.63L20.9646 17.5667C21.6015 17.2503 22 16.5978 22 15.8906V7.09594C22 6.31453 21.5155 5.61518 20.7849 5.34169L12.6583 2.29422C12.2364 2.13012 11.7675 2.13012 11.3417 2.29031ZM12.002 4.71657L19.5034 7.52962V7.57259L12.002 10.6201L4.50049 7.57259V7.52962L12.002 4.71657ZM13.2522 18.6255V12.808L19.5034 10.2684V15.4999L13.2522 18.6255Z" fill="#656565"/>
</svg>
