<svg width="18" height="20" viewBox="0 0 18 20" fill="none" xmlns="http://www.w3.org/2000/svg">
<path d="M12.5679 0.691016C12.3509 0.267578 11.9049 0 11.4187 0H6.58125C6.09509 0 5.64911 0.267578 5.43214 0.691016L5.14286 1.25H1.28572C0.574554 1.25 0 1.80977 0 2.5C0 3.19023 0.574554 3.75 1.28572 3.75H16.7143C17.4242 3.75 18 3.19023 18 2.5C18 1.80977 17.4242 1.25 16.7143 1.25H12.8571L12.5679 0.691016ZM16.7504 5H1.28572V17.5C1.28572 18.8789 2.43884 20 3.85714 20H14.179C15.5632 20 16.7504 18.8789 16.7504 17.5V5ZM13.5362 8.125V16.875C13.5362 17.2188 13.2107 17.5 12.8933 17.5C12.5036 17.5 12.2504 17.2188 12.2504 16.875V8.125C12.2504 7.78125 12.5036 7.5 12.8933 7.5C13.2107 7.5 13.5362 7.78125 13.5362 8.125ZM9.67902 8.125V16.875C9.67902 17.2188 9.35357 17.5 9.03616 17.5C8.64643 17.5 8.35714 17.2188 8.35714 16.875V8.125C8.35714 7.78125 8.64643 7.5 9.03616 7.5C9.35357 7.5 9.67902 7.78125 9.67902 8.125ZM5.78571 8.125V16.875C5.78571 17.2188 5.49643 17.5 5.14286 17.5C4.78929 17.5 4.5 17.2188 4.5 16.875V8.125C4.5 7.78125 4.78929 7.5 5.14286 7.5C5.49643 7.5 5.78571 7.78125 5.78571 8.125Z" fill="#656565"/>
</svg>
