<svg width="17" height="20" viewBox="0 0 17 20" fill="none" xmlns="http://www.w3.org/2000/svg">
<path d="M4.63135 11.6696H3.78136L4.73759 12.6258V11.7758L3.78136 12.732H4.63135L3.67513 11.7758V12.6258C3.67513 12.8702 3.78138 13.1294 3.95563 13.3016C4.12137 13.4673 4.39339 13.5927 4.63139 13.5821C4.87789 13.5714 5.13501 13.4907 5.30714 13.3016C5.47927 13.1146 5.58764 12.8851 5.58764 12.6258V11.7758C5.58764 11.2594 5.14988 10.8196 4.63142 10.8196H3.78142C3.26506 10.8196 2.8252 11.2573 2.8252 11.7758V12.6258C2.8252 13.1422 3.26296 13.582 3.78142 13.582H4.63142C4.87579 13.582 5.13504 13.4758 5.30718 13.3015C5.47292 13.1358 5.5983 12.8638 5.58768 12.6258C5.57705 12.3793 5.4963 12.1221 5.30718 11.95C5.12018 11.7779 4.89067 11.6695 4.63142 11.6695L4.63135 11.6696Z" fill="#656565"/>
<path d="M7.34068 13.1574H9.00453H11.6607H12.2749C12.5192 13.1574 12.7785 13.0511 12.9506 12.8769C13.1164 12.7111 13.2418 12.4391 13.2311 12.2011C13.2205 11.9546 13.1398 11.6975 12.9506 11.5254C12.7636 11.3532 12.5341 11.2449 12.2749 11.2449H10.611H7.95481H7.34068C7.0963 11.2449 6.83705 11.3511 6.66492 11.5254C6.49917 11.6911 6.37379 11.9631 6.38442 12.2011C6.39504 12.4476 6.47579 12.7048 6.66492 12.8769C6.85192 13.049 7.08142 13.1574 7.34068 13.1574Z" fill="#656565"/>
<path d="M4.63135 15.3524H3.78136C4.10011 15.6712 4.41885 15.9899 4.73759 16.3087V15.4587C4.41884 15.7774 4.1001 16.0962 3.78136 16.4149H4.63135C4.31261 16.0962 3.99387 15.7774 3.67513 15.4587V16.3087C3.67513 16.553 3.78138 16.8123 3.95563 16.9844C4.12137 17.1502 4.39339 17.2755 4.63139 17.2649C4.87789 17.2543 5.13501 17.1735 5.30714 16.9844C5.47927 16.7974 5.58764 16.5679 5.58764 16.3087V15.4587C5.58764 14.9423 5.14988 14.5024 4.63142 14.5024H3.78142C3.26506 14.5024 2.8252 14.9402 2.8252 15.4587V16.3087C2.8252 16.825 3.26296 17.2649 3.78142 17.2649H4.63142C4.87579 17.2649 5.13504 17.1586 5.30718 16.9844C5.47292 16.8186 5.5983 16.5466 5.58768 16.3086C5.57705 16.0621 5.4963 15.805 5.30718 15.6329C5.12018 15.4607 4.89067 15.3524 4.63142 15.3524L4.63135 15.3524Z" fill="#656565"/>
<path d="M7.34068 16.84H9.00453H11.6607H12.2749C12.5192 16.84 12.7785 16.7338 12.9506 16.5595C13.1164 16.3938 13.2418 16.1217 13.2311 15.8837C13.2205 15.6372 13.1398 15.3801 12.9506 15.208C12.7636 15.0359 12.5341 14.9275 12.2749 14.9275H10.611H7.95481H7.34068C7.0963 14.9275 6.83705 15.0337 6.66492 15.208C6.49917 15.3737 6.37379 15.6458 6.38442 15.8837C6.39504 16.1302 6.47579 16.3874 6.66492 16.5595C6.85192 16.7316 7.08142 16.84 7.34068 16.84Z" fill="#656565"/>
<path d="M4.63135 7.98525H3.78136L4.73759 8.94147V8.09148L3.78136 9.04771H4.63135L3.67513 8.09148V8.94147C3.67513 9.18585 3.78138 9.4451 3.95563 9.61723C4.12137 9.78298 4.39339 9.90836 4.63139 9.89773C4.87789 9.88711 5.13501 9.80636 5.30714 9.61723C5.47927 9.43024 5.58764 9.20073 5.58764 8.94147V8.09148C5.58764 7.57511 5.14988 7.13525 4.63142 7.13525H3.78142C3.26506 7.13525 2.8252 7.57301 2.8252 8.09148V8.94147C2.8252 9.45784 3.26296 9.8977 3.78142 9.8977H4.63142C4.87579 9.8977 5.13504 9.79145 5.30718 9.6172C5.47292 9.45146 5.5983 9.17944 5.58768 8.94144C5.57705 8.69494 5.4963 8.43782 5.30718 8.26568C5.12018 8.09356 4.89067 7.98518 4.63142 7.98518L4.63135 7.98525Z" fill="#656565"/>
<path d="M7.34068 9.47258H9.00453H11.6607H12.2749C12.5192 9.47258 12.7785 9.36633 12.9506 9.19208C13.1164 9.02633 13.2418 8.75432 13.2311 8.51632C13.2205 8.26982 13.1398 8.01269 12.9506 7.84056C12.7636 7.66843 12.5341 7.56006 12.2749 7.56006H10.611H7.95481H7.34068C7.0963 7.56006 6.83705 7.66631 6.66492 7.84056C6.49917 8.00631 6.37379 8.27832 6.38442 8.51632C6.39504 8.76282 6.47579 9.01994 6.66492 9.19208C6.85192 9.3642 7.08142 9.47258 7.34068 9.47258Z" fill="#656565"/>
<path d="M11.6693 4.78264H14.2278C14.3574 4.78264 14.487 4.77413 14.6167 4.78688C14.5317 4.77626 14.4467 4.76351 14.3617 4.75288C14.4084 4.75926 14.453 4.76988 14.4955 4.78688C14.419 4.75501 14.3425 4.72314 14.2682 4.69126C14.3107 4.71039 14.3489 4.73164 14.385 4.75926C14.3213 4.71039 14.2554 4.65939 14.1917 4.61051C14.2278 4.64026 14.2575 4.67001 14.2873 4.70614C14.2384 4.64239 14.1874 4.57651 14.1385 4.51276C14.1662 4.55101 14.1874 4.58926 14.2065 4.62964C14.1747 4.55313 14.1428 4.47664 14.1109 4.40226C14.1279 4.44688 14.1385 4.48939 14.1449 4.53613C14.1343 4.45113 14.1215 4.36614 14.1109 4.28114C14.1237 4.42351 14.1152 4.57013 14.1152 4.71252V5.74312V9.13673V13.2466V16.8102C14.1152 17.3776 14.1194 17.9449 14.1152 18.5123C14.1152 18.5378 14.1152 18.5633 14.1109 18.591C14.1215 18.506 14.1343 18.421 14.1449 18.336C14.1385 18.3827 14.1279 18.4273 14.1109 18.4698C14.1428 18.3933 14.1747 18.3168 14.2065 18.2425C14.1874 18.285 14.1662 18.3232 14.1385 18.3593C14.1874 18.2956 14.2384 18.2297 14.2873 18.166C14.2575 18.2021 14.2278 18.2318 14.1917 18.2616C14.2554 18.2127 14.3213 18.1617 14.385 18.1128C14.3468 18.1405 14.3085 18.1617 14.2682 18.1808C14.3447 18.149 14.4212 18.1171 14.4955 18.0852C14.4509 18.1022 14.4084 18.1128 14.3617 18.1192C14.4467 18.1086 14.5317 18.0958 14.6167 18.0852C14.4849 18.0958 14.351 18.0895 14.2193 18.0895H13.2694H10.1266H6.33134H3.05885C2.53611 18.0895 2.01123 18.0937 1.48849 18.0895C1.46299 18.0895 1.43749 18.0873 1.41199 18.0852C1.49699 18.0958 1.58199 18.1086 1.66699 18.1192C1.62024 18.1128 1.57561 18.1022 1.53312 18.0852C1.60962 18.1171 1.68612 18.149 1.76049 18.1808C1.71799 18.1617 1.67974 18.1405 1.64362 18.1128C1.70737 18.1617 1.77324 18.2127 1.83699 18.2616C1.80087 18.2318 1.77112 18.2021 1.74137 18.166C1.79024 18.2297 1.84124 18.2956 1.89012 18.3593C1.86249 18.3211 1.84124 18.2828 1.82212 18.2425C1.85399 18.319 1.88587 18.3955 1.91774 18.4698C1.90074 18.4252 1.89012 18.3827 1.88374 18.336C1.89437 18.421 1.90712 18.506 1.91774 18.591C1.90499 18.4486 1.91349 18.302 1.91349 18.1596V17.129V13.7354V9.62548V6.06188C1.91349 5.49449 1.90924 4.92715 1.91349 4.35976C1.91349 4.33426 1.91349 4.30876 1.91774 4.28114C1.90712 4.36614 1.89437 4.45113 1.88374 4.53613C1.89012 4.48939 1.90074 4.44476 1.91774 4.40226C1.88587 4.47876 1.85399 4.55526 1.82212 4.62964C1.84124 4.58713 1.86249 4.54889 1.89012 4.51276C1.84124 4.57651 1.79024 4.64238 1.74137 4.70614C1.77112 4.67001 1.80087 4.64026 1.83699 4.61051C1.77324 4.65939 1.70737 4.71039 1.64362 4.75926C1.68187 4.73164 1.72012 4.71039 1.76049 4.69126C1.68399 4.72314 1.60749 4.75501 1.53312 4.78688C1.57774 4.76988 1.62024 4.75926 1.66699 4.75288C1.58199 4.76351 1.49699 4.77626 1.41199 4.78688C1.51824 4.77838 1.62661 4.78264 1.73286 4.78264H2.42347H3.99806H4.35718C4.60156 4.78264 4.86081 4.67638 5.03294 4.50214C5.19869 4.33639 5.32407 4.06437 5.31344 3.82638C5.30282 3.57988 5.22207 3.32275 5.03294 3.15062C4.84595 2.97849 4.61644 2.87012 4.35718 2.87012H1.68181C1.41407 2.87012 1.15907 2.88287 0.906192 2.98912C0.351588 3.22286 0.0115912 3.74562 0.000944446 4.34697C-0.00118056 4.47872 0.000944446 4.60834 0.000944446 4.74008V6.87356V10.1439V13.7139V16.742V18.4165V18.527C0.0136942 19.1879 0.474804 19.8466 1.1548 19.9613C1.36517 19.9975 1.54791 19.9996 1.75828 19.9996H3.84925H7.14299H10.6811H13.4712H14.2851C14.5082 19.9996 14.7313 20.0081 14.9502 19.9465C15.5898 19.7637 16.0105 19.1815 16.0233 18.5249V18.4059V17.7705V15.2821V11.8843V8.36533V5.57521C16.0233 5.16722 16.0318 4.75708 16.0233 4.34699C16.0105 3.70099 15.5771 3.06774 14.9247 2.919C14.7122 2.87012 14.5188 2.87225 14.3063 2.87225H12.6935H11.6671C11.4227 2.87225 11.1635 2.9785 10.9913 3.15275C10.8256 3.3185 10.7002 3.59051 10.7108 3.82851C10.7215 4.07501 10.8022 4.33213 10.9913 4.50427C11.1805 4.67427 11.4099 4.78264 11.6692 4.78264L11.6693 4.78264Z" fill="#656565"/>
<path d="M10.7131 3.01038V3.80512C10.7131 4.07287 10.7322 4.34911 10.7088 4.61688C10.7195 4.53188 10.7322 4.44688 10.7428 4.36188C10.7365 4.41075 10.7258 4.45538 10.7088 4.50213C10.7407 4.42563 10.7726 4.34913 10.8045 4.27475C10.7853 4.31938 10.7641 4.35763 10.7365 4.398C10.7853 4.33426 10.8363 4.26838 10.8852 4.20463C10.8512 4.24925 10.813 4.2875 10.7683 4.3215C10.8321 4.27263 10.898 4.22163 10.9617 4.17275C10.9235 4.20038 10.8831 4.22163 10.8385 4.24075C10.915 4.20888 10.9915 4.17701 11.0658 4.14513C11.0191 4.16213 10.9745 4.17276 10.9256 4.17913C11.0106 4.16851 11.0956 4.15576 11.1806 4.14513C10.9617 4.16213 10.7344 4.14938 10.5155 4.14938H9.02372H5.65351C5.38577 4.14938 5.10952 4.16851 4.84175 4.14513C4.92675 4.15576 5.01175 4.16851 5.09675 4.17913C5.04788 4.17276 5.00326 4.16213 4.9565 4.14513C5.033 4.17701 5.1095 4.20888 5.18388 4.24075C5.13925 4.22163 5.101 4.20038 5.06063 4.17275C5.12438 4.22163 5.19025 4.27263 5.254 4.3215C5.20938 4.2875 5.17113 4.24925 5.13713 4.20463C5.186 4.26838 5.237 4.33425 5.28588 4.398C5.25825 4.35975 5.237 4.31938 5.21788 4.27475C5.24975 4.35125 5.28163 4.42775 5.3135 4.50213C5.2965 4.45538 5.28587 4.41075 5.2795 4.36188C5.29013 4.44688 5.30287 4.53188 5.3135 4.61688C5.29225 4.34275 5.30925 4.06014 5.30925 3.78386C5.30925 3.50761 5.29012 3.22499 5.3135 2.95085C5.30287 3.03585 5.29013 3.12085 5.2795 3.20585C5.28587 3.15697 5.2965 3.11235 5.3135 3.0656C5.28163 3.1421 5.24975 3.2186 5.21788 3.29297C5.237 3.24835 5.25825 3.2101 5.28588 3.16972C5.237 3.23347 5.186 3.29935 5.13713 3.3631C5.17113 3.31848 5.20938 3.28022 5.254 3.24622C5.19025 3.2951 5.12438 3.3461 5.06063 3.39497C5.09888 3.36735 5.13925 3.3461 5.18388 3.32697C5.10738 3.35885 5.03088 3.39072 4.9565 3.4226C5.00325 3.4056 5.04788 3.39497 5.09675 3.3886C5.01175 3.39922 4.92675 3.41197 4.84175 3.4226C5.12225 3.39922 5.41124 3.41835 5.69175 3.41835H6.52476C7.04113 3.41835 7.48099 2.98058 7.48099 2.46212C7.48099 2.38562 7.48524 2.31124 7.49586 2.23687C7.48524 2.32187 7.47249 2.40687 7.46186 2.49187C7.48099 2.36012 7.51711 2.23262 7.56811 2.11149C7.53624 2.18799 7.50437 2.26449 7.47249 2.33887C7.52562 2.21987 7.58936 2.10937 7.67011 2.00525C7.62124 2.069 7.57024 2.13487 7.52136 2.19862C7.59574 2.10512 7.68074 2.02012 7.77424 1.94575C7.71049 1.99462 7.64461 2.04562 7.58086 2.0945C7.68499 2.01587 7.79336 1.95 7.91448 1.89688C7.83798 1.92875 7.76148 1.96062 7.68711 1.9925C7.81036 1.9415 7.93573 1.90537 8.06748 1.88625C7.98248 1.89687 7.89748 1.90962 7.81248 1.92025C7.94848 1.90325 8.08448 1.90325 8.22048 1.92025C8.13548 1.90962 8.05048 1.89687 7.96548 1.88625C8.09723 1.90537 8.22473 1.9415 8.34586 1.9925C8.26935 1.96062 8.19286 1.92875 8.11848 1.89688C8.23748 1.95 8.34798 2.01375 8.4521 2.0945C8.38835 2.04562 8.32248 1.99462 8.25873 1.94575C8.35223 2.02012 8.43723 2.10512 8.5116 2.19862C8.46273 2.13487 8.41173 2.069 8.36285 2.00525C8.44148 2.10937 8.50735 2.21775 8.56047 2.33887C8.5286 2.26237 8.49673 2.18587 8.46485 2.11149C8.51585 2.23474 8.55198 2.36011 8.5711 2.49187C8.56048 2.40687 8.54773 2.32187 8.5371 2.23687C8.5456 2.31124 8.55198 2.38774 8.55198 2.46212C8.55198 2.97849 8.98974 3.41835 9.50821 3.41835H10.3412C10.6217 3.41835 10.9107 3.39922 11.1912 3.4226C11.1062 3.41197 11.0212 3.39922 10.9362 3.3886C10.9851 3.39497 11.0297 3.4056 11.0765 3.4226C11 3.39072 10.9235 3.35885 10.8491 3.32697C10.8937 3.3461 10.932 3.36735 10.9723 3.39497C10.9086 3.3461 10.8427 3.2951 10.779 3.24622C10.8236 3.28022 10.8618 3.31848 10.8958 3.3631C10.847 3.29935 10.796 3.23348 10.7471 3.16972C10.7747 3.20797 10.796 3.24835 10.8151 3.29297C10.7832 3.21647 10.7513 3.13997 10.7195 3.0656C10.7365 3.11235 10.7471 3.15697 10.7535 3.20585C10.7428 3.12085 10.7301 3.03585 10.7195 2.95085C10.7131 2.96998 10.7131 2.99123 10.7131 3.01035C10.7195 3.25897 10.8151 3.5076 10.9936 3.68611C11.1593 3.85186 11.4314 3.97723 11.6694 3.96661C12.1751 3.94323 12.6405 3.54587 12.6256 3.01038C12.6065 2.33889 12.1836 1.763 11.5376 1.56751C11.3485 1.51013 11.1508 1.51013 10.9554 1.51013H9.83336H9.49974C9.81849 1.82888 10.1372 2.14762 10.456 2.46636C10.456 1.99887 10.3285 1.49735 10.0586 1.11061C9.89709 0.878984 9.73133 0.6941 9.51035 0.524101C9.28298 0.347726 9.06198 0.230852 8.78785 0.128849C8.5626 0.0438499 8.30971 0.0119756 8.07172 0.00135218C7.83372 -0.00714775 7.58721 0.0247269 7.35772 0.088477C6.91359 0.213852 6.47159 0.479455 6.17624 0.840707C5.95524 1.11058 5.80649 1.36558 5.68964 1.69707C5.60464 1.93932 5.57064 2.20921 5.57064 2.46632C5.88938 2.14757 6.20812 1.82884 6.52687 1.51009H5.15413H4.92251C4.81201 1.51009 4.70151 1.53134 4.59101 1.54834C4.32964 1.58872 4.10864 1.73322 3.90678 1.89684C3.57953 2.16246 3.41377 2.60023 3.40316 3.01246C3.40103 3.06559 3.40316 3.11871 3.40316 3.17396C3.40316 3.63507 3.39253 4.09832 3.40316 4.55944C3.42228 5.39031 4.07255 6.04268 4.90552 6.0618C4.97352 6.06392 5.04152 6.0618 5.10952 6.0618H8.01438H10.9235C10.9893 6.0618 11.0573 6.06392 11.1232 6.0618C11.5185 6.0533 11.8734 5.90667 12.1645 5.64106C12.3217 5.50081 12.4237 5.31806 12.5045 5.12892C12.5831 4.94405 12.6192 4.7613 12.6235 4.55944C12.6341 4.09405 12.6235 3.6287 12.6235 3.16331V3.01669C12.6235 2.77231 12.5172 2.51306 12.343 2.34093C12.1772 2.17518 11.9052 2.04981 11.6672 2.06043C11.4207 2.07105 11.1636 2.1518 10.9914 2.34093C10.8214 2.52155 10.7131 2.75106 10.7131 3.01032L10.7131 3.01038Z" fill="#656565"/>
</svg>
