<svg width="22" height="20" viewBox="0 0 22 20" fill="none" xmlns="http://www.w3.org/2000/svg">
<path d="M14.1812 0C10.6413 0 7.72102 2.72119 7.38916 6.17254L8.07496 6.1727C8.36261 6.1727 8.65014 6.21699 8.9157 6.28335C9.18114 3.62837 11.4378 1.52673 14.1812 1.52673C17.1016 1.52673 19.4909 3.9161 19.4909 6.83644C19.4909 9.40284 17.6546 11.5488 15.2431 12.0355V13.4294V13.6064C18.5174 13.0976 21.0395 10.2657 21.0395 6.85862C21.0175 3.05333 17.9643 0.000245199 14.1812 0.000245199V0Z" fill="#656565"/>
<path d="M17.3008 6.83626C17.3008 6.41586 16.9691 6.06184 16.5264 6.06184H14.9556V3.65039C14.9556 3.23 14.6238 2.87598 14.1812 2.87598C13.7387 2.87598 13.4067 3.20777 13.4067 3.65039V6.83626C13.4067 7.25665 13.7385 7.61067 14.1812 7.61067H16.5262C16.9468 7.58845 17.3008 7.2565 17.3008 6.83626H17.3008Z" fill="#656565"/>
<path d="M7.47788 16.8806H6.41598C5.59743 16.8806 4.93368 16.2391 4.91164 15.4204C3.47367 15.354 2.14616 15.2434 0.907227 15.0222V18.7389C0.907227 19.4247 1.46032 20.0001 2.14612 20.0001H11.7257C12.4115 20.0001 12.9869 19.447 12.9869 18.7389L12.9866 15.0222C11.7697 15.2213 10.4424 15.354 9.00427 15.4204C8.96013 16.2391 8.29639 16.8806 7.47785 16.8806H7.47788Z" fill="#656565"/>
<path d="M12.6327 10.2433H9.86726V9.33618C9.86726 8.36269 9.0708 7.54419 8.07527 7.54419H5.79636C4.82287 7.54419 4.00437 8.34065 4.00437 9.33618V10.2433H1.23889C0.553095 10.2433 0 10.7964 0 11.4822V13.4069C0 13.5839 0.110651 13.7387 0.287657 13.7609C1.48226 14.0043 3.00885 14.1813 4.88941 14.2697C4.88941 13.429 5.57521 12.7654 6.41599 12.7654H7.4779C8.31864 12.7654 8.98223 13.4292 9.00448 14.2697C10.8628 14.1813 12.3894 13.9821 13.5841 13.7387C13.7611 13.7167 13.8718 13.5617 13.8718 13.3847V11.46C13.8716 10.7964 13.3185 10.2433 12.6327 10.2433H12.6327ZM8.34072 10.1326H5.53095V9.33619C5.53095 9.20347 5.6416 9.07075 5.79639 9.07075H8.07514C8.23008 9.07075 8.34058 9.1814 8.34058 9.33619L8.34072 10.1326Z" fill="#656565"/>
<path d="M7.45566 15.7744C7.67696 15.7744 7.85381 15.5973 7.85381 15.3762V14.3364C7.85381 14.1151 7.6768 13.9382 7.45566 13.9382H6.39376C6.17245 13.9382 5.99561 14.1152 5.99561 14.3364V15.3762C5.99561 15.5975 6.17262 15.7744 6.39376 15.7744H7.45566Z" fill="#656565"/>
</svg>
