<svg width="17" height="17" viewBox="0 0 17 17" fill="none" xmlns="http://www.w3.org/2000/svg">
<path d="M17 0H0V1.70854H1.70854V15.0352L4.52758 16.9999L6.49234 15.6331L8.4571 16.9999L10.4219 15.6331L12.3866 16.9999L15.2057 15.0352L15.2059 1.62312H16.9144V3.05075e-05L17 0ZM13.5829 14.0955L12.4724 14.8643L10.4221 13.5829L8.45732 14.8643L6.49255 13.5829L4.52779 14.9497L3.33172 14.0955V1.62312H13.583L13.5829 14.0955Z" fill="#656565"/>
<path d="M5.04053 3.33374H11.8747V5.04228H5.04053V3.33374Z" fill="#656565"/>
<path d="M5.04053 6.74902H11.8747V8.45757H5.04053V6.74902Z" fill="#656565"/>
<path d="M5.04053 10.1658H11.8747V11.8743H5.04053V10.1658Z" fill="#656565"/>
</svg>
