<svg width="24" height="24" viewBox="0 0 1000 1000" fill="none" xmlns="http://www.w3.org/2000/svg">
<path d="M929.2,532v372.7h-715V532H929.2 M990,471.2H153.4v494.4H990V471.2L990,471.2z" fill="#656565"/>
<path d="M761.8,471.2l85.6,85.6c-0.6,3.2-1.9,6.1-1.9,9.4c0,27.3,22.1,49.3,49.3,49.3c3.3,0,6.2-1.3,9.4-1.9l85.6,85.6l0-228.2H761.8z" fill="#656565"/>
<path d="M868.3,718.4c0-27.3-22.1-49.3-49.4-49.3c-27.3,0-49.3,22.1-49.3,49.3c0,27.3,22.1,49.3,49.3,49.3C846.1,767.7,868.3,745.6,868.3,718.4z" fill="#656565"/>
<path d="M571.7,588.5c-82.4,0-149.3,58.1-149.3,129.8c0,71.7,66.8,129.8,149.3,129.8c82.4,0,149.3-58.1,149.3-129.8C721,646.7,654.1,588.5,571.7,588.5z" fill="#656565"/>
<path d="M324.5,767.7c27.3,0,49.4-22.1,49.4-49.3c0-27.3-22.1-49.3-49.4-49.3c-27.3,0-49.3,22.1-49.3,49.3C275.2,745.6,297.2,767.7,324.5,767.7z" fill="#656565"/>
<path d="M153.4,699.4l85.6-85.6c3.2,0.6,6.1,1.9,9.4,1.9c27.3,0,49.3-22.1,49.3-49.4c0-3.3-1.3-6.2-1.9-9.4l85.6-85.7H153.4V699.4z" fill="#656565"/>
<path d="M297.8,870.5c0-27.3-22.1-49.3-49.4-49.3c-3.3,0-6.2,1.3-9.4,1.9l-85.7-85.6v228.2h228.2l-85.6-85.6C296.6,876.8,297.8,873.8,297.8,870.5z" fill="#656565"/>
<path d="M894.9,821.1c-27.3,0-49.3,22.1-49.3,49.4c0,3.3,1.3,6.2,1.9,9.4l-85.7,85.7H990V737.4L904.4,823C901.2,822.4,898.3,821.1,894.9,821.1z" fill="#656565"/>
<path d="M736.1,376.7c23.9-13.1,32.7-43.1,19.6-67c-13.1-23.9-43.1-32.6-66.9-19.5c-24,13.1-32.8,43.1-19.6,67C682.3,381.1,712.2,389.8,736.1,376.7z" fill="#656565"/>
<path d="M96.3,471.2c0-31.5,25.6-57,57-57h31.2l1.4-4.9l440.3-241.1l33.6,9.8c1,3,1.3,6.2,2.9,9.2c13.1,24,43.1,32.7,67,19.6c2.9-1.6,4.9-4.1,7.3-6.2l33.7,9.9l76.7,140l-9.9,33.7c-3,0.9-6.2,1.3-9.1,2.9c-11.1,6.1-18.6,16-22.4,27.1h145.7l-98.3-179.6h0.1L743.8,34.4L543.7,144l0,0L210.1,326.7L10,436.3L96.3,594V471.2z" fill="#656565"/>
<path d="M433.3,338.3c-33.1,18.1-57,45.6-70.4,75.8H638c-2.2-11.6-5.5-23-11.4-33.6C592.1,317.6,505.6,298.7,433.3,338.3z" fill="#656565"/>
</svg>